<svg xmlns="http://www.w3.org/2000/svg" xmlns:xlink="http://www.w3.org/1999/xlink" width="50" zoomAndPan="magnify" viewBox="0 0 37.5 37.499999" height="50" preserveAspectRatio="xMidYMid meet" version="1.0"><defs><clipPath id="4b0918aad0"><path d="M 0 0 L 37.007812 0 L 37.007812 37.007812 L 0 37.007812 Z M 0 0 " clip-rule="nonzero"/></clipPath><clipPath id="ebaee0e18c"><path d="M 6 22 L 18 22 L 18 36.851562 L 6 36.851562 Z M 6 22 " clip-rule="nonzero"/></clipPath><clipPath id="41f62b364c"><path d="M 11 1 L 32.554688 1 L 32.554688 27 L 11 27 Z M 11 1 " clip-rule="nonzero"/></clipPath><clipPath id="dc282215d0"><path d="M 22 1 L 32.554688 1 L 32.554688 11 L 22 11 Z M 22 1 " clip-rule="nonzero"/></clipPath><clipPath id="41d56521d2"><path d="M 4.804688 0.851562 L 32.554688 0.851562 L 32.554688 36.851562 L 4.804688 36.851562 Z M 4.804688 0.851562 " clip-rule="nonzero"/></clipPath></defs><g clip-path="url(#4b0918aad0)"><path fill="#ffffff" d="M 0 0 L 37.5 0 L 37.5 45 L 0 45 Z M 0 0 " fill-opacity="1" fill-rule="nonzero"/><path fill="#ffffff" d="M 0 0 L 37.5 0 L 37.5 37.5 L 0 37.5 Z M 0 0 " fill-opacity="1" fill-rule="nonzero"/><path fill="#0072ff" d="M 0 0 L 37.5 0 L 37.5 37.5 L 0 37.5 Z M 0 0 " fill-opacity="1" fill-rule="nonzero"/></g><g clip-path="url(#ebaee0e18c)"><path fill="#fedb2e" d="M 12.808594 22.144531 C 12.808594 22.144531 7.714844 23.6875 6.507812 28.390625 C 6.507812 28.390625 7.9375 27.3125 9.191406 27.113281 C 9.191406 27.113281 5.742188 30.835938 6.625 36.410156 C 6.625 36.410156 10.21875 36.652344 13.167969 32.195312 C 13.167969 32.195312 13.1875 34.117188 12.484375 35.082031 C 12.484375 35.082031 18.257812 30.785156 17.421875 25.496094 L 12.808594 22.144531 " fill-opacity="1" fill-rule="nonzero"/><path fill="#000000" d="M 6.714844 36.308594 C 7.261719 36.308594 10.449219 36.121094 13.082031 32.140625 L 13.269531 31.859375 L 13.269531 32.195312 C 13.273438 32.265625 13.28125 33.648438 12.839844 34.660156 C 14.136719 33.554688 17.980469 29.863281 17.328125 25.550781 L 12.789062 22.257812 C 12.28125 22.429688 7.917969 24 6.683594 28.140625 C 7.148438 27.820312 8.203125 27.164062 9.175781 27.011719 L 9.46875 26.964844 L 9.265625 27.183594 C 9.234375 27.21875 5.898438 30.898438 6.714844 36.308594 Z M 12 35.574219 L 12.402344 35.023438 C 12.898438 34.339844 13.023438 33.140625 13.054688 32.546875 C 10.144531 36.699219 6.65625 36.515625 6.617188 36.515625 L 6.535156 36.507812 L 6.523438 36.429688 C 5.765625 31.648438 8.199219 28.179688 8.921875 27.273438 C 7.785156 27.566406 6.582031 28.464844 6.570312 28.472656 L 6.332031 28.652344 L 6.40625 28.367188 C 7.613281 23.660156 12.726562 22.0625 12.777344 22.046875 L 12.828125 22.03125 L 17.519531 25.433594 L 17.523438 25.476562 C 17.960938 28.246094 16.582031 30.734375 15.347656 32.335938 C 14.015625 34.0625 12.5625 35.15625 12.546875 35.167969 L 12 35.574219 " fill-opacity="1" fill-rule="nonzero"/></g><path fill="#ffffff" d="M 13.472656 22.792969 C 12.875 23.058594 11.109375 24.582031 10.246094 25.320312 L 12.816406 25.09375 L 10.367188 28.105469 C 10.316406 28.160156 9.59375 28.984375 8.972656 30.363281 C 8.363281 31.71875 8.058594 33.117188 8.0625 34.546875 C 9.085938 34.1875 10.550781 33.328125 11.902344 31.28125 L 14.703125 27.386719 L 14.734375 30.320312 C 15.472656 29.144531 16.832031 26.660156 16.773438 25.191406 L 13.472656 22.792969 " fill-opacity="1" fill-rule="nonzero"/><path fill="#ff172a" d="M 5.617188 22.632812 C 5.347656 22.4375 5.269531 22.070312 5.429688 21.746094 C 6.179688 20.226562 7.53125 17.984375 8.347656 17.070312 C 12.457031 12.488281 17.519531 13.574219 17.730469 13.621094 L 18.382812 13.769531 L 13.769531 20.109375 L 13.519531 20.085938 C 13.5 20.082031 11.433594 19.898438 9.925781 20.449219 C 8.601562 20.929688 7.34375 21.867188 6.523438 22.566406 C 6.246094 22.800781 5.882812 22.828125 5.617188 22.632812 " fill-opacity="1" fill-rule="nonzero"/><path fill="#000000" d="M 14 13.808594 C 12.304688 14.179688 10.269531 15.085938 8.425781 17.140625 C 7.613281 18.046875 6.269531 20.277344 5.523438 21.792969 C 5.386719 22.070312 5.449219 22.382812 5.675781 22.550781 C 5.90625 22.714844 6.21875 22.6875 6.453125 22.488281 C 7.285156 21.78125 8.550781 20.835938 9.890625 20.351562 C 11.429688 19.789062 13.507812 19.980469 13.53125 19.984375 L 13.71875 20 L 18.207031 13.835938 L 17.707031 13.722656 C 17.59375 13.695312 16.042969 13.363281 14 13.808594 Z M 6.191406 22.847656 C 5.96875 22.894531 5.742188 22.851562 5.554688 22.714844 C 5.242188 22.488281 5.152344 22.070312 5.335938 21.699219 C 6.089844 20.175781 7.449219 17.921875 8.273438 17 C 12.414062 12.378906 17.539062 13.472656 17.753906 13.519531 L 18.558594 13.703125 L 13.820312 20.21875 L 13.511719 20.1875 C 13.488281 20.1875 11.449219 20.003906 9.960938 20.546875 C 8.652344 21.019531 7.40625 21.949219 6.589844 22.644531 C 6.46875 22.746094 6.332031 22.816406 6.191406 22.847656 " fill-opacity="1" fill-rule="nonzero"/><path fill="#ff172a" d="M 19.410156 32.648438 C 19.144531 32.453125 19.058594 32.101562 19.195312 31.765625 C 19.609375 30.769531 20.113281 29.289062 20.160156 27.882812 C 20.21875 26.277344 19.40625 24.375 19.398438 24.355469 L 19.300781 24.125 L 23.914062 17.785156 L 24.257812 18.359375 C 24.367188 18.546875 26.964844 23.019531 23.863281 28.335938 C 23.246094 29.394531 21.53125 31.371094 20.3125 32.550781 C 20.050781 32.804688 19.679688 32.84375 19.410156 32.648438 " fill-opacity="1" fill-rule="nonzero"/><path fill="#000000" d="M 19.472656 32.5625 C 19.699219 32.730469 20.015625 32.695312 20.242188 32.476562 C 21.453125 31.300781 23.164062 29.335938 23.773438 28.285156 C 26.84375 23.023438 24.277344 18.597656 24.167969 18.410156 L 23.90625 17.972656 L 19.417969 24.136719 L 19.492188 24.3125 C 19.5 24.332031 20.324219 26.257812 20.265625 27.882812 C 20.214844 29.304688 19.707031 30.800781 19.289062 31.804688 C 19.171875 32.09375 19.242188 32.398438 19.472656 32.5625 Z M 19.960938 32.859375 C 19.75 32.902344 19.53125 32.863281 19.347656 32.730469 C 19.042969 32.507812 18.941406 32.105469 19.101562 31.726562 C 19.507812 30.738281 20.007812 29.269531 20.058594 27.878906 C 20.113281 26.300781 19.3125 24.414062 19.304688 24.394531 L 19.179688 24.109375 L 19.214844 24.0625 L 23.921875 17.597656 L 24.34375 18.304688 C 24.457031 18.496094 27.082031 23.023438 23.953125 28.386719 C 23.332031 29.453125 21.605469 31.441406 20.382812 32.625 C 20.261719 32.746094 20.113281 32.824219 19.960938 32.859375 " fill-opacity="1" fill-rule="nonzero"/><g clip-path="url(#41f62b364c)"><path fill="#ffffff" d="M 12.179688 21.472656 L 12.144531 21.421875 C 11.894531 21.101562 11.859375 20.664062 12.050781 20.304688 L 12.226562 19.984375 C 12.597656 19.296875 13.402344 17.808594 13.644531 17.371094 L 13.949219 16.796875 C 15.441406 14.015625 17.476562 10.203125 18.269531 9.117188 C 19.492188 7.441406 21.085938 5.945312 23.007812 4.679688 C 25.460938 3.0625 27.953125 2.136719 29.613281 1.644531 C 30.171875 1.480469 30.761719 1.582031 31.230469 1.921875 C 31.703125 2.265625 31.984375 2.796875 31.996094 3.378906 C 32.039062 5.105469 31.929688 7.757812 31.144531 10.589844 C 30.53125 12.804688 29.601562 14.78125 28.378906 16.460938 C 27.589844 17.542969 24.589844 20.65625 22.398438 22.929688 L 21.941406 23.402344 C 21.566406 23.800781 20.175781 25.257812 19.746094 25.707031 L 19.640625 25.816406 C 19.363281 26.109375 18.933594 26.210938 18.546875 26.074219 L 18.492188 26.054688 L 17.886719 25.09375 L 15.734375 23.53125 L 13.265625 21.738281 L 12.179688 21.472656 " fill-opacity="1" fill-rule="nonzero"/><path fill="#000000" d="M 18.558594 25.96875 L 18.582031 25.976562 C 18.929688 26.101562 19.316406 26.007812 19.566406 25.746094 L 19.84375 25.457031 C 20.390625 24.882812 21.535156 23.6875 21.867188 23.332031 L 22.359375 22.820312 C 24.535156 20.5625 27.515625 17.472656 28.296875 16.398438 C 29.511719 14.730469 30.4375 12.765625 31.046875 10.5625 C 31.824219 7.742188 31.9375 5.097656 31.894531 3.378906 C 31.878906 2.832031 31.617188 2.332031 31.171875 2.007812 C 30.726562 1.683594 30.171875 1.589844 29.644531 1.746094 C 27.992188 2.234375 25.507812 3.15625 23.0625 4.765625 C 21.152344 6.027344 19.566406 7.511719 18.351562 9.179688 C 17.566406 10.257812 15.53125 14.066406 14.042969 16.84375 L 13.734375 17.421875 C 13.535156 17.785156 12.929688 18.898438 12.53125 19.636719 L 12.144531 20.355469 C 11.96875 20.675781 12 21.070312 12.226562 21.359375 L 12.242188 21.378906 L 13.308594 21.640625 L 17.964844 25.023438 Z M 19.140625 26.210938 C 18.9375 26.257812 18.71875 26.246094 18.511719 26.171875 L 18.421875 26.140625 L 17.808594 25.164062 L 13.222656 21.832031 L 12.121094 21.5625 L 12.0625 21.488281 C 11.789062 21.132812 11.75 20.648438 11.960938 20.253906 L 12.351562 19.535156 C 12.75 18.800781 13.351562 17.6875 13.550781 17.320312 L 13.859375 16.746094 C 15.351562 13.960938 17.390625 10.148438 18.183594 9.058594 C 19.414062 7.367188 21.015625 5.867188 22.949219 4.59375 C 25.414062 2.96875 27.917969 2.039062 29.585938 1.546875 C 30.171875 1.371094 30.796875 1.480469 31.292969 1.839844 C 31.792969 2.203125 32.085938 2.761719 32.101562 3.375 C 32.144531 5.109375 32.03125 7.769531 31.246094 10.617188 C 30.628906 12.84375 29.691406 14.832031 28.464844 16.519531 C 27.671875 17.605469 24.6875 20.703125 22.507812 22.964844 L 22.015625 23.476562 C 21.683594 23.828125 20.542969 25.023438 19.992188 25.597656 L 19.71875 25.886719 C 19.558594 26.054688 19.355469 26.164062 19.140625 26.210938 " fill-opacity="1" fill-rule="nonzero"/></g><g clip-path="url(#dc282215d0)"><path fill="#ff172a" d="M 27.074219 7.636719 L 22.980469 4.667969 L 23.15625 4.550781 C 25.691406 2.882812 28.269531 1.925781 29.984375 1.417969 C 30.480469 1.269531 31.003906 1.359375 31.421875 1.664062 C 31.839844 1.96875 32.089844 2.4375 32.101562 2.953125 C 32.144531 4.738281 32.03125 7.480469 31.21875 10.410156 L 31.164062 10.613281 L 27.074219 7.636719 " fill-opacity="1" fill-rule="nonzero"/><path fill="#000000" d="M 23.160156 4.671875 L 27.136719 7.554688 L 31.105469 10.441406 L 31.121094 10.378906 C 31.925781 7.464844 32.042969 4.734375 31.996094 2.953125 C 31.984375 2.472656 31.753906 2.03125 31.359375 1.746094 C 30.96875 1.460938 30.480469 1.378906 30.015625 1.515625 C 28.304688 2.023438 25.738281 2.976562 23.210938 4.640625 Z M 31.222656 10.785156 L 27.015625 7.722656 L 22.796875 4.664062 L 23.097656 4.464844 C 25.644531 2.789062 28.234375 1.828125 29.957031 1.316406 C 30.480469 1.160156 31.039062 1.257812 31.484375 1.578125 C 31.929688 1.902344 32.191406 2.402344 32.203125 2.949219 C 32.25 4.742188 32.132812 7.496094 31.320312 10.4375 L 31.222656 10.785156 " fill-opacity="1" fill-rule="nonzero"/></g><path fill="#1ce882" d="M 25.691406 15.042969 C 24.640625 16.492188 22.609375 16.808594 21.164062 15.757812 C 19.714844 14.707031 19.394531 12.679688 20.445312 11.234375 C 21.5 9.785156 23.527344 9.46875 24.976562 10.519531 C 26.425781 11.570312 26.746094 13.597656 25.691406 15.042969 " fill-opacity="1" fill-rule="nonzero"/><path fill="#000000" d="M 22.398438 10.078125 C 21.671875 10.234375 21 10.648438 20.53125 11.292969 C 20.035156 11.972656 19.835938 12.800781 19.96875 13.628906 C 20.097656 14.457031 20.546875 15.183594 21.222656 15.675781 C 22.625 16.691406 24.589844 16.382812 25.609375 14.984375 C 26.101562 14.304688 26.300781 13.476562 26.171875 12.648438 C 26.039062 11.820312 25.59375 11.09375 24.914062 10.601562 C 24.160156 10.054688 23.242188 9.894531 22.398438 10.078125 Z M 23.785156 16.402344 C 22.882812 16.597656 21.90625 16.425781 21.101562 15.84375 C 20.378906 15.316406 19.902344 14.542969 19.765625 13.660156 C 19.625 12.777344 19.835938 11.894531 20.363281 11.171875 C 21.449219 9.683594 23.542969 9.351562 25.039062 10.433594 C 25.761719 10.960938 26.234375 11.734375 26.375 12.617188 C 26.515625 13.5 26.300781 14.382812 25.777344 15.105469 C 25.273438 15.792969 24.558594 16.234375 23.785156 16.402344 " fill-opacity="1" fill-rule="nonzero"/><path fill="#1ce882" d="M 20.777344 18.152344 C 20.421875 18.640625 19.734375 18.75 19.242188 18.394531 C 18.753906 18.039062 18.644531 17.351562 19 16.863281 C 19.359375 16.375 20.042969 16.265625 20.535156 16.621094 C 21.023438 16.976562 21.132812 17.664062 20.777344 18.152344 " fill-opacity="1" fill-rule="nonzero"/><path fill="#000000" d="M 19.675781 16.539062 C 19.4375 16.589844 19.230469 16.726562 19.085938 16.925781 C 18.761719 17.367188 18.863281 17.988281 19.304688 18.308594 C 19.746094 18.632812 20.371094 18.535156 20.691406 18.089844 C 21.015625 17.648438 20.917969 17.027344 20.472656 16.707031 C 20.257812 16.550781 19.996094 16.488281 19.734375 16.527344 C 19.714844 16.53125 19.695312 16.535156 19.675781 16.539062 Z M 20.144531 18.679688 C 19.824219 18.75 19.472656 18.6875 19.183594 18.476562 C 18.648438 18.089844 18.527344 17.335938 18.917969 16.804688 C 19.105469 16.542969 19.382812 16.375 19.703125 16.324219 C 20.019531 16.273438 20.335938 16.347656 20.59375 16.539062 C 21.128906 16.925781 21.25 17.679688 20.859375 18.214844 C 20.679688 18.460938 20.421875 18.617188 20.144531 18.679688 " fill-opacity="1" fill-rule="nonzero"/><path fill="#ff172a" d="M 13.589844 17.789062 C 13.28125 18.347656 12.085938 20.5625 11.925781 20.855469 C 11.808594 21.074219 11.832031 21.347656 11.984375 21.546875 L 18.480469 26.261719 C 18.71875 26.347656 18.984375 26.285156 19.15625 26.105469 C 19.386719 25.863281 21.125 24.042969 21.5625 23.578125 L 13.589844 17.789062 " fill-opacity="1" fill-rule="nonzero"/><path fill="#000000" d="M 19.160156 25.890625 L 19.050781 26.003906 C 18.921875 26.136719 18.726562 26.1875 18.550781 26.132812 L 17.535156 25.394531 C 17.78125 25.253906 17.996094 25.019531 18.21875 24.859375 C 18.617188 24.574219 19 24.265625 19.351562 23.925781 C 19.378906 23.898438 19.355469 23.859375 19.320312 23.871094 C 18.882812 24 18.558594 24.277344 18.191406 24.527344 C 17.90625 24.722656 17.546875 24.960938 17.292969 25.21875 L 16.636719 24.742188 C 17.160156 24.085938 17.8125 23.382812 18.074219 22.578125 C 18.097656 22.507812 18.019531 22.445312 17.957031 22.492188 C 17.613281 22.757812 17.40625 23.152344 17.164062 23.507812 C 16.914062 23.867188 16.636719 24.203125 16.382812 24.558594 L 15.019531 23.570312 C 15.542969 22.839844 16.1875 22.058594 16.488281 21.214844 C 16.5 21.179688 16.460938 21.15625 16.433594 21.171875 C 16.070312 21.421875 15.886719 21.820312 15.660156 22.183594 C 15.398438 22.601562 15.066406 22.992188 14.769531 23.386719 L 13.492188 22.457031 C 13.691406 22.09375 13.914062 21.738281 14.101562 21.367188 C 14.28125 21.019531 14.625 20.585938 14.632812 20.175781 C 14.636719 20.09375 14.523438 20.035156 14.472656 20.113281 C 14.03125 20.816406 13.640625 21.554688 13.25 22.285156 L 12.089844 21.441406 C 11.980469 21.289062 11.96875 21.089844 12.054688 20.925781 L 12.238281 20.589844 C 12.589844 19.9375 13.320312 18.585938 13.636719 18.007812 L 21.339844 23.601562 C 20.835938 24.136719 19.574219 25.457031 19.160156 25.890625 Z M 13.539062 17.574219 L 13.460938 17.71875 C 13.210938 18.175781 12.367188 19.734375 11.976562 20.449219 L 11.796875 20.785156 C 11.652344 21.058594 11.675781 21.390625 11.867188 21.636719 L 18.410156 26.394531 L 18.433594 26.402344 C 18.722656 26.507812 19.050781 26.429688 19.261719 26.207031 L 19.371094 26.09375 C 19.820312 25.621094 21.277344 24.097656 21.671875 23.679688 L 21.785156 23.558594 L 13.539062 17.574219 " fill-opacity="1" fill-rule="nonzero"/><path fill="#ffffff" d="M 24.855469 11.484375 C 23.554688 9.675781 21.226562 11.046875 21.199219 12.238281 C 21.195312 12.382812 21.351562 12.429688 21.441406 12.332031 C 22.160156 11.558594 22.933594 11.296875 24.191406 11.828125 C 24.816406 12.09375 25.035156 11.734375 24.855469 11.484375 " fill-opacity="1" fill-rule="nonzero"/><path fill="#ffffff" d="M 30.207031 2.351562 C 29.503906 2.585938 28.808594 2.769531 28.117188 3.054688 C 27.410156 3.34375 26.765625 3.765625 26.070312 4.082031 C 25.558594 4.3125 25.917969 5.125 26.417969 4.875 C 27.105469 4.535156 27.75 4.117188 28.433594 3.769531 C 29.082031 3.445312 29.835938 3.132812 30.402344 2.675781 C 30.578125 2.535156 30.402344 2.289062 30.207031 2.351562 " fill-opacity="1" fill-rule="nonzero"/><g clip-path="url(#41d56521d2)"><path fill="#000000" d="M 30.019531 0.980469 C 29.96875 0.992188 29.917969 1.003906 29.867188 1.019531 C 28.125 1.535156 25.507812 2.507812 22.929688 4.207031 L 22.28125 4.675781 C 20.539062 5.894531 19.078125 7.304688 17.933594 8.875 C 17.507812 9.457031 16.726562 10.796875 15.480469 13.082031 C 14.945312 13.117188 14.410156 13.191406 13.886719 13.304688 C 11.644531 13.792969 9.675781 14.96875 8.039062 16.792969 C 7.199219 17.734375 5.820312 20.019531 5.058594 21.5625 C 4.808594 22.074219 4.9375 22.648438 5.375 22.96875 C 5.628906 23.152344 5.941406 23.21875 6.257812 23.148438 C 6.449219 23.105469 6.632812 23.015625 6.792969 22.878906 C 7.585938 22.203125 8.800781 21.296875 10.066406 20.835938 C 10.261719 20.765625 10.476562 20.707031 10.707031 20.65625 C 10.941406 20.605469 11.195312 20.5625 11.464844 20.53125 L 11.433594 20.589844 C 11.207031 21.003906 11.25 21.515625 11.539062 21.890625 L 11.578125 21.9375 L 11.625 21.96875 L 11.796875 22.09375 C 10.242188 22.785156 7.046875 24.617188 6.105469 28.289062 L 5.886719 29.144531 C 5.863281 29.238281 5.972656 29.3125 6.050781 29.253906 L 6.757812 28.722656 C 6.765625 28.714844 7.34375 28.28125 8.0625 27.929688 C 7.792969 28.347656 7.492188 28.871094 7.203125 29.5 C 6.492188 31.035156 5.746094 33.492188 6.21875 36.476562 L 6.253906 36.71875 C 6.261719 36.769531 6.304688 36.804688 6.351562 36.808594 L 6.597656 36.824219 C 6.617188 36.824219 7.105469 36.855469 7.851562 36.691406 C 8.746094 36.496094 9.625 36.121094 10.460938 35.570312 C 11.234375 35.058594 11.953125 34.414062 12.609375 33.636719 C 12.539062 33.972656 12.144531 35.175781 11.953125 35.757812 C 11.917969 35.855469 12.03125 35.9375 12.113281 35.875 L 12.730469 35.414062 C 12.792969 35.371094 14.199219 34.316406 15.542969 32.59375 C 17.105469 30.589844 17.914062 28.519531 17.917969 26.546875 L 18.167969 26.730469 L 18.214844 26.765625 L 18.273438 26.785156 L 18.292969 26.792969 C 18.386719 26.824219 18.484375 26.851562 18.582031 26.859375 C 18.960938 26.890625 19.3125 26.75 19.5625 26.492188 L 19.605469 26.445312 C 19.714844 26.972656 19.761719 27.457031 19.746094 27.867188 C 19.699219 29.210938 19.214844 30.644531 18.8125 31.609375 C 18.597656 32.121094 18.742188 32.671875 19.167969 32.980469 C 19.417969 33.164062 19.722656 33.226562 20.027344 33.160156 C 20.238281 33.113281 20.4375 33.007812 20.601562 32.847656 C 21.839844 31.648438 23.589844 29.632812 24.222656 28.542969 C 26.128906 25.277344 25.972656 22.3125 25.464844 20.332031 C 27.253906 18.441406 28.289062 17.285156 28.714844 16.703125 C 29.859375 15.128906 30.753906 13.308594 31.375 11.277344 L 31.621094 10.519531 C 32.441406 7.542969 32.5625 4.753906 32.515625 2.941406 C 32.5 2.296875 32.1875 1.707031 31.664062 1.328125 C 31.191406 0.984375 30.589844 0.855469 30.019531 0.980469 Z M 30.105469 1.386719 C 30.5625 1.285156 31.039062 1.382812 31.421875 1.664062 C 31.839844 1.96875 32.089844 2.4375 32.101562 2.953125 C 32.144531 4.738281 32.03125 7.480469 31.21875 10.410156 L 31.164062 10.613281 L 31.144531 10.597656 C 30.53125 12.808594 29.601562 14.78125 28.378906 16.460938 C 27.882812 17.144531 26.503906 18.636719 25.003906 20.214844 C 25.515625 22.039062 25.796875 25.023438 23.863281 28.335938 C 23.246094 29.394531 21.53125 31.371094 20.3125 32.550781 C 20.203125 32.65625 20.074219 32.726562 19.941406 32.757812 C 19.757812 32.796875 19.566406 32.761719 19.410156 32.648438 C 19.144531 32.453125 19.058594 32.101562 19.195312 31.765625 C 19.609375 30.769531 20.113281 29.289062 20.160156 27.882812 C 20.1875 27.113281 20.019531 26.28125 19.832031 25.617188 C 19.800781 25.652344 19.769531 25.683594 19.746094 25.707031 L 19.640625 25.816406 C 19.625 25.835938 19.605469 25.847656 19.589844 25.863281 C 19.503906 25.953125 19.429688 26.03125 19.371094 26.09375 L 19.261719 26.207031 C 19.152344 26.320312 19.011719 26.398438 18.863281 26.429688 C 18.722656 26.460938 18.574219 26.453125 18.433594 26.402344 L 18.410156 26.394531 L 17.449219 25.695312 C 18.113281 30.894531 12.484375 35.082031 12.484375 35.082031 C 13.1875 34.117188 13.167969 32.195312 13.167969 32.195312 C 11.25 35.09375 9.058594 36.003906 7.761719 36.289062 C 7.066406 36.441406 6.625 36.410156 6.625 36.410156 C 5.742188 30.835938 9.191406 27.113281 9.191406 27.113281 C 9.132812 27.121094 9.074219 27.132812 9.015625 27.144531 C 7.808594 27.410156 6.507812 28.390625 6.507812 28.390625 C 7.585938 24.1875 11.765625 22.507812 12.644531 22.199219 L 11.867188 21.636719 C 11.675781 21.390625 11.652344 21.058594 11.796875 20.785156 L 11.976562 20.449219 C 11.992188 20.425781 12.007812 20.394531 12.023438 20.367188 C 12.03125 20.347656 12.039062 20.324219 12.050781 20.304688 L 12.183594 20.066406 C 11.703125 20.082031 11.152344 20.132812 10.621094 20.25 C 10.382812 20.304688 10.148438 20.367188 9.925781 20.449219 C 8.601562 20.929688 7.34375 21.867188 6.523438 22.566406 C 6.414062 22.65625 6.292969 22.71875 6.167969 22.746094 C 5.976562 22.785156 5.777344 22.75 5.617188 22.632812 C 5.347656 22.4375 5.269531 22.070312 5.429688 21.746094 C 6.179688 20.226562 7.53125 17.984375 8.347656 17.070312 C 10.207031 14.996094 12.261719 14.082031 13.972656 13.710938 C 14.617188 13.570312 15.214844 13.503906 15.734375 13.484375 C 16.773438 11.570312 17.769531 9.800781 18.269531 9.117188 C 19.488281 7.441406 21.082031 5.949219 23 4.683594 L 22.980469 4.667969 L 23.15625 4.550781 C 25.691406 2.882812 28.269531 1.925781 29.984375 1.417969 C 30.027344 1.40625 30.066406 1.394531 30.105469 1.386719 " fill-opacity="1" fill-rule="nonzero"/></g></svg>